<mxfile host="app.diagrams.net" agent="Mozilla/5.0 (Macintosh; Intel Mac OS X 10.15; rv:140.0) Gecko/20100101 Firefox/140.0" version="27.2.0">
  <diagram name="Page-1" id="CYqURBH52xyH5G7vPPQf">
    <mxGraphModel dx="2066" dy="1134" grid="1" gridSize="10" guides="1" tooltips="1" connect="1" arrows="1" fold="1" page="1" pageScale="1" pageWidth="850" pageHeight="1100" math="0" shadow="0">
      <root>
        <mxCell id="0" />
        <mxCell id="1" parent="0" />
        <mxCell id="PXgoulBbUJrniPEwXmiW-1" value="" style="rounded=0;whiteSpace=wrap;html=1;" vertex="1" parent="1">
          <mxGeometry x="300" y="200" width="230" height="90" as="geometry" />
        </mxCell>
        <mxCell id="PXgoulBbUJrniPEwXmiW-2" value="&lt;div&gt;&lt;b&gt;&lt;font style=&quot;font-size: 18px;&quot;&gt;NextJS Frontend&lt;/font&gt;&lt;/b&gt;&lt;/div&gt;" style="text;html=1;align=center;verticalAlign=middle;whiteSpace=wrap;rounded=0;" vertex="1" parent="1">
          <mxGeometry x="325" y="205" width="180" height="80" as="geometry" />
        </mxCell>
        <mxCell id="PXgoulBbUJrniPEwXmiW-4" value="&lt;div&gt;Weather Service&lt;/div&gt;" style="rounded=0;whiteSpace=wrap;html=1;" vertex="1" parent="1">
          <mxGeometry x="355" y="550" width="120" height="60" as="geometry" />
        </mxCell>
        <mxCell id="PXgoulBbUJrniPEwXmiW-5" value="Redis" style="shape=cylinder3;whiteSpace=wrap;html=1;boundedLbl=1;backgroundOutline=1;size=15;" vertex="1" parent="1">
          <mxGeometry x="385" y="670" width="60" height="80" as="geometry" />
        </mxCell>
        <mxCell id="PXgoulBbUJrniPEwXmiW-8" value="" style="endArrow=none;html=1;rounded=0;exitX=0.5;exitY=1;exitDx=0;exitDy=0;entryX=0.5;entryY=0;entryDx=0;entryDy=0;entryPerimeter=0;" edge="1" parent="1" source="PXgoulBbUJrniPEwXmiW-4" target="PXgoulBbUJrniPEwXmiW-5">
          <mxGeometry width="50" height="50" relative="1" as="geometry">
            <mxPoint x="330" y="770" as="sourcePoint" />
            <mxPoint x="380" y="720" as="targetPoint" />
          </mxGeometry>
        </mxCell>
        <mxCell id="PXgoulBbUJrniPEwXmiW-9" value="&lt;div&gt;Logging Service&lt;/div&gt;" style="rounded=0;whiteSpace=wrap;html=1;" vertex="1" parent="1">
          <mxGeometry x="570" y="550" width="120" height="60" as="geometry" />
        </mxCell>
        <mxCell id="PXgoulBbUJrniPEwXmiW-10" value="DB" style="shape=cylinder3;whiteSpace=wrap;html=1;boundedLbl=1;backgroundOutline=1;size=15;" vertex="1" parent="1">
          <mxGeometry x="600" y="670" width="60" height="80" as="geometry" />
        </mxCell>
        <mxCell id="PXgoulBbUJrniPEwXmiW-11" value="" style="endArrow=none;html=1;rounded=0;exitX=0.5;exitY=1;exitDx=0;exitDy=0;entryX=0.5;entryY=0;entryDx=0;entryDy=0;entryPerimeter=0;" edge="1" parent="1" source="PXgoulBbUJrniPEwXmiW-9" target="PXgoulBbUJrniPEwXmiW-10">
          <mxGeometry width="50" height="50" relative="1" as="geometry">
            <mxPoint x="545" y="770" as="sourcePoint" />
            <mxPoint x="595" y="720" as="targetPoint" />
          </mxGeometry>
        </mxCell>
        <mxCell id="PXgoulBbUJrniPEwXmiW-12" value="User service" style="rounded=0;whiteSpace=wrap;html=1;" vertex="1" parent="1">
          <mxGeometry x="130" y="550" width="120" height="60" as="geometry" />
        </mxCell>
        <mxCell id="PXgoulBbUJrniPEwXmiW-13" value="DB" style="shape=cylinder3;whiteSpace=wrap;html=1;boundedLbl=1;backgroundOutline=1;size=15;" vertex="1" parent="1">
          <mxGeometry x="160" y="670" width="60" height="80" as="geometry" />
        </mxCell>
        <mxCell id="PXgoulBbUJrniPEwXmiW-14" value="" style="endArrow=none;html=1;rounded=0;exitX=0.5;exitY=1;exitDx=0;exitDy=0;entryX=0.5;entryY=0;entryDx=0;entryDy=0;entryPerimeter=0;" edge="1" parent="1" source="PXgoulBbUJrniPEwXmiW-12" target="PXgoulBbUJrniPEwXmiW-13">
          <mxGeometry width="50" height="50" relative="1" as="geometry">
            <mxPoint x="105" y="770" as="sourcePoint" />
            <mxPoint x="155" y="720" as="targetPoint" />
          </mxGeometry>
        </mxCell>
        <mxCell id="PXgoulBbUJrniPEwXmiW-15" value="&lt;div&gt;YARP&lt;/div&gt;&lt;div&gt;API-Gateway&lt;/div&gt;" style="rounded=0;whiteSpace=wrap;html=1;" vertex="1" parent="1">
          <mxGeometry x="355" y="370" width="120" height="60" as="geometry" />
        </mxCell>
        <mxCell id="PXgoulBbUJrniPEwXmiW-16" value="" style="endArrow=classic;startArrow=classic;html=1;rounded=0;exitX=0.5;exitY=0;exitDx=0;exitDy=0;entryX=0.5;entryY=1;entryDx=0;entryDy=0;" edge="1" parent="1" source="PXgoulBbUJrniPEwXmiW-15" target="PXgoulBbUJrniPEwXmiW-1">
          <mxGeometry width="50" height="50" relative="1" as="geometry">
            <mxPoint x="330" y="770" as="sourcePoint" />
            <mxPoint x="490" y="330" as="targetPoint" />
          </mxGeometry>
        </mxCell>
        <mxCell id="PXgoulBbUJrniPEwXmiW-17" value="" style="endArrow=classic;startArrow=classic;html=1;rounded=0;exitX=0.5;exitY=0;exitDx=0;exitDy=0;entryX=0.5;entryY=1;entryDx=0;entryDy=0;" edge="1" parent="1" source="PXgoulBbUJrniPEwXmiW-12" target="PXgoulBbUJrniPEwXmiW-15">
          <mxGeometry width="50" height="50" relative="1" as="geometry">
            <mxPoint x="510" y="540" as="sourcePoint" />
            <mxPoint x="510" y="440" as="targetPoint" />
            <Array as="points">
              <mxPoint x="190" y="490" />
              <mxPoint x="415" y="490" />
            </Array>
          </mxGeometry>
        </mxCell>
        <mxCell id="PXgoulBbUJrniPEwXmiW-18" value="" style="endArrow=classic;startArrow=classic;html=1;rounded=0;entryX=0.5;entryY=1;entryDx=0;entryDy=0;exitX=0.5;exitY=0;exitDx=0;exitDy=0;" edge="1" parent="1" source="PXgoulBbUJrniPEwXmiW-4" target="PXgoulBbUJrniPEwXmiW-15">
          <mxGeometry width="50" height="50" relative="1" as="geometry">
            <mxPoint x="330" y="770" as="sourcePoint" />
            <mxPoint x="380" y="720" as="targetPoint" />
          </mxGeometry>
        </mxCell>
        <mxCell id="PXgoulBbUJrniPEwXmiW-19" value="" style="endArrow=classic;startArrow=classic;html=1;rounded=0;entryX=0.5;entryY=1;entryDx=0;entryDy=0;exitX=0.5;exitY=0;exitDx=0;exitDy=0;" edge="1" parent="1" source="PXgoulBbUJrniPEwXmiW-9" target="PXgoulBbUJrniPEwXmiW-15">
          <mxGeometry width="50" height="50" relative="1" as="geometry">
            <mxPoint x="330" y="770" as="sourcePoint" />
            <mxPoint x="380" y="720" as="targetPoint" />
            <Array as="points">
              <mxPoint x="630" y="490" />
              <mxPoint x="415" y="490" />
            </Array>
          </mxGeometry>
        </mxCell>
      </root>
    </mxGraphModel>
  </diagram>
</mxfile>
